<mxfile host="Electron" agent="Mozilla/5.0 (Windows NT 10.0; Win64; x64) AppleWebKit/537.36 (KHTML, like Gecko) draw.io/26.2.15 Chrome/134.0.6998.205 Electron/35.2.1 Safari/537.36" version="26.2.15">
  <diagram name="Page-1" id="yDUiGIjsuA3bHO4XqmEx">
    <mxGraphModel dx="1722" dy="1001" grid="1" gridSize="10" guides="1" tooltips="1" connect="1" arrows="1" fold="1" page="1" pageScale="1" pageWidth="850" pageHeight="1100" background="none" math="0" shadow="0">
      <root>
        <mxCell id="0" />
        <mxCell id="1" parent="0" />
        <mxCell id="nl7fZnjaljLbseoDOLMn-1" value="User" style="shape=umlActor;verticalLabelPosition=bottom;verticalAlign=top;html=1;outlineConnect=0;" vertex="1" parent="1">
          <mxGeometry x="380" y="240" width="30" height="60" as="geometry" />
        </mxCell>
        <mxCell id="nl7fZnjaljLbseoDOLMn-2" value="WebAPI" style="whiteSpace=wrap;html=1;aspect=fixed;" vertex="1" parent="1">
          <mxGeometry x="700" y="240" width="80" height="80" as="geometry" />
        </mxCell>
        <mxCell id="nl7fZnjaljLbseoDOLMn-3" value="" style="endArrow=classic;html=1;rounded=0;flowAnimation=1;strokeColor=#FFFF33;" edge="1" parent="1">
          <mxGeometry relative="1" as="geometry">
            <mxPoint x="430" y="270" as="sourcePoint" />
            <mxPoint x="690" y="270" as="targetPoint" />
          </mxGeometry>
        </mxCell>
        <mxCell id="nl7fZnjaljLbseoDOLMn-4" value="Label" style="edgeLabel;resizable=0;html=1;;align=center;verticalAlign=middle;" connectable="0" vertex="1" parent="nl7fZnjaljLbseoDOLMn-3">
          <mxGeometry relative="1" as="geometry" />
        </mxCell>
        <mxCell id="nl7fZnjaljLbseoDOLMn-5" value="Source" style="edgeLabel;resizable=0;html=1;;align=left;verticalAlign=bottom;" connectable="0" vertex="1" parent="nl7fZnjaljLbseoDOLMn-3">
          <mxGeometry x="-1" relative="1" as="geometry" />
        </mxCell>
        <mxCell id="nl7fZnjaljLbseoDOLMn-6" value="Target" style="edgeLabel;resizable=0;html=1;;align=right;verticalAlign=bottom;" connectable="0" vertex="1" parent="nl7fZnjaljLbseoDOLMn-3">
          <mxGeometry x="1" relative="1" as="geometry" />
        </mxCell>
        <mxCell id="nl7fZnjaljLbseoDOLMn-7" value="Request" style="edgeLabel;html=1;align=center;verticalAlign=middle;resizable=0;points=[];" vertex="1" connectable="0" parent="nl7fZnjaljLbseoDOLMn-3">
          <mxGeometry x="0.0308" y="1" relative="1" as="geometry">
            <mxPoint as="offset" />
          </mxGeometry>
        </mxCell>
        <mxCell id="nl7fZnjaljLbseoDOLMn-8" value="" style="endArrow=none;dashed=1;html=1;dashPattern=1 3;strokeWidth=2;rounded=0;" edge="1" parent="1">
          <mxGeometry width="50" height="50" relative="1" as="geometry">
            <mxPoint x="394" y="690" as="sourcePoint" />
            <mxPoint x="394" y="330" as="targetPoint" />
          </mxGeometry>
        </mxCell>
        <mxCell id="nl7fZnjaljLbseoDOLMn-9" value="" style="endArrow=none;dashed=1;html=1;dashPattern=1 3;strokeWidth=2;rounded=0;" edge="1" parent="1">
          <mxGeometry width="50" height="50" relative="1" as="geometry">
            <mxPoint x="740" y="690" as="sourcePoint" />
            <mxPoint x="739.5" y="330" as="targetPoint" />
          </mxGeometry>
        </mxCell>
        <mxCell id="nl7fZnjaljLbseoDOLMn-10" value="" style="endArrow=classic;html=1;rounded=0;flowAnimation=1;strokeColor=#9999FF;" edge="1" parent="1">
          <mxGeometry relative="1" as="geometry">
            <mxPoint x="400" y="360" as="sourcePoint" />
            <mxPoint x="730" y="360" as="targetPoint" />
          </mxGeometry>
        </mxCell>
        <mxCell id="nl7fZnjaljLbseoDOLMn-11" value="Label" style="edgeLabel;resizable=0;html=1;;align=center;verticalAlign=middle;" connectable="0" vertex="1" parent="nl7fZnjaljLbseoDOLMn-10">
          <mxGeometry relative="1" as="geometry" />
        </mxCell>
        <mxCell id="nl7fZnjaljLbseoDOLMn-12" value="User" style="edgeLabel;resizable=0;html=1;;align=left;verticalAlign=bottom;" connectable="0" vertex="1" parent="nl7fZnjaljLbseoDOLMn-10">
          <mxGeometry x="-1" relative="1" as="geometry" />
        </mxCell>
        <mxCell id="nl7fZnjaljLbseoDOLMn-13" value="WebAPI" style="edgeLabel;resizable=0;html=1;;align=right;verticalAlign=bottom;" connectable="0" vertex="1" parent="nl7fZnjaljLbseoDOLMn-10">
          <mxGeometry x="1" relative="1" as="geometry" />
        </mxCell>
        <mxCell id="nl7fZnjaljLbseoDOLMn-14" value="First Call" style="edgeLabel;html=1;align=center;verticalAlign=middle;resizable=0;points=[];" vertex="1" connectable="0" parent="nl7fZnjaljLbseoDOLMn-10">
          <mxGeometry x="-0.0061" y="-3" relative="1" as="geometry">
            <mxPoint as="offset" />
          </mxGeometry>
        </mxCell>
        <mxCell id="nl7fZnjaljLbseoDOLMn-15" value="" style="endArrow=classic;html=1;rounded=0;flowAnimation=1;strokeColor=#9999FF;" edge="1" parent="1">
          <mxGeometry relative="1" as="geometry">
            <mxPoint x="720" y="430" as="sourcePoint" />
            <mxPoint x="410" y="430" as="targetPoint" />
          </mxGeometry>
        </mxCell>
        <mxCell id="nl7fZnjaljLbseoDOLMn-16" value="Label" style="edgeLabel;resizable=0;html=1;;align=center;verticalAlign=middle;" connectable="0" vertex="1" parent="nl7fZnjaljLbseoDOLMn-15">
          <mxGeometry relative="1" as="geometry" />
        </mxCell>
        <mxCell id="nl7fZnjaljLbseoDOLMn-17" value="&lt;span style=&quot;color: rgb(255, 255, 255); font-family: Helvetica; font-size: 11px; font-style: normal; font-variant-ligatures: normal; font-variant-caps: normal; font-weight: 400; letter-spacing: normal; orphans: 2; text-align: right; text-indent: 0px; text-transform: none; widows: 2; word-spacing: 0px; -webkit-text-stroke-width: 0px; white-space: nowrap; background-color: rgb(18, 18, 18); text-decoration-thickness: initial; text-decoration-style: initial; text-decoration-color: initial; display: inline !important; float: none;&quot;&gt;WebAPI&lt;/span&gt;" style="edgeLabel;resizable=0;html=1;;align=left;verticalAlign=bottom;" connectable="0" vertex="1" parent="nl7fZnjaljLbseoDOLMn-15">
          <mxGeometry x="-1" relative="1" as="geometry" />
        </mxCell>
        <mxCell id="nl7fZnjaljLbseoDOLMn-18" value="User" style="edgeLabel;resizable=0;html=1;;align=right;verticalAlign=bottom;" connectable="0" vertex="1" parent="nl7fZnjaljLbseoDOLMn-15">
          <mxGeometry x="1" relative="1" as="geometry" />
        </mxCell>
        <mxCell id="nl7fZnjaljLbseoDOLMn-19" value="W/ETag / Last-Modified" style="edgeLabel;html=1;align=center;verticalAlign=middle;resizable=0;points=[];" vertex="1" connectable="0" parent="nl7fZnjaljLbseoDOLMn-15">
          <mxGeometry x="0.0387" relative="1" as="geometry">
            <mxPoint x="1" as="offset" />
          </mxGeometry>
        </mxCell>
        <mxCell id="nl7fZnjaljLbseoDOLMn-65" value="Text" style="edgeLabel;html=1;align=center;verticalAlign=middle;resizable=0;points=[];" vertex="1" connectable="0" parent="nl7fZnjaljLbseoDOLMn-15">
          <mxGeometry x="0.0074" y="1" relative="1" as="geometry">
            <mxPoint as="offset" />
          </mxGeometry>
        </mxCell>
        <mxCell id="nl7fZnjaljLbseoDOLMn-20" value="Redis" style="shape=cylinder3;whiteSpace=wrap;html=1;boundedLbl=1;backgroundOutline=1;size=15;fillColor=#FF0000;" vertex="1" parent="1">
          <mxGeometry x="920" y="240" width="60" height="80" as="geometry" />
        </mxCell>
        <mxCell id="nl7fZnjaljLbseoDOLMn-21" value="Database" style="shape=cylinder3;whiteSpace=wrap;html=1;boundedLbl=1;backgroundOutline=1;size=15;" vertex="1" parent="1">
          <mxGeometry x="1130" y="230" width="80" height="90" as="geometry" />
        </mxCell>
        <mxCell id="nl7fZnjaljLbseoDOLMn-22" value="" style="endArrow=none;dashed=1;html=1;dashPattern=1 3;strokeWidth=2;rounded=0;" edge="1" parent="1">
          <mxGeometry width="50" height="50" relative="1" as="geometry">
            <mxPoint x="950" y="690" as="sourcePoint" />
            <mxPoint x="950" y="330" as="targetPoint" />
          </mxGeometry>
        </mxCell>
        <mxCell id="nl7fZnjaljLbseoDOLMn-23" value="" style="endArrow=none;dashed=1;html=1;dashPattern=1 3;strokeWidth=2;rounded=0;" edge="1" parent="1">
          <mxGeometry width="50" height="50" relative="1" as="geometry">
            <mxPoint x="1170" y="690" as="sourcePoint" />
            <mxPoint x="1169.5" y="330" as="targetPoint" />
          </mxGeometry>
        </mxCell>
        <mxCell id="nl7fZnjaljLbseoDOLMn-28" value="" style="endArrow=classic;html=1;rounded=0;flowAnimation=1;strokeColor=#9999FF;" edge="1" parent="1">
          <mxGeometry relative="1" as="geometry">
            <mxPoint x="750" y="360" as="sourcePoint" />
            <mxPoint x="940" y="360" as="targetPoint" />
          </mxGeometry>
        </mxCell>
        <mxCell id="nl7fZnjaljLbseoDOLMn-29" value="Label" style="edgeLabel;resizable=0;html=1;;align=center;verticalAlign=middle;" connectable="0" vertex="1" parent="nl7fZnjaljLbseoDOLMn-28">
          <mxGeometry relative="1" as="geometry" />
        </mxCell>
        <mxCell id="nl7fZnjaljLbseoDOLMn-30" value="WebAPI" style="edgeLabel;resizable=0;html=1;;align=left;verticalAlign=bottom;" connectable="0" vertex="1" parent="nl7fZnjaljLbseoDOLMn-28">
          <mxGeometry x="-1" relative="1" as="geometry" />
        </mxCell>
        <mxCell id="nl7fZnjaljLbseoDOLMn-31" value="Cache" style="edgeLabel;resizable=0;html=1;;align=right;verticalAlign=bottom;" connectable="0" vertex="1" parent="nl7fZnjaljLbseoDOLMn-28">
          <mxGeometry x="1" relative="1" as="geometry" />
        </mxCell>
        <mxCell id="nl7fZnjaljLbseoDOLMn-33" value="Check&amp;nbsp;" style="edgeLabel;html=1;align=center;verticalAlign=middle;resizable=0;points=[];" vertex="1" connectable="0" parent="nl7fZnjaljLbseoDOLMn-28">
          <mxGeometry x="-0.025" y="-2" relative="1" as="geometry">
            <mxPoint as="offset" />
          </mxGeometry>
        </mxCell>
        <mxCell id="nl7fZnjaljLbseoDOLMn-40" value="" style="endArrow=classic;html=1;rounded=0;entryX=0.5;entryY=0;entryDx=0;entryDy=0;entryPerimeter=0;flowAnimation=1;strokeColor=#6666FF;" edge="1" parent="1" target="nl7fZnjaljLbseoDOLMn-20">
          <mxGeometry width="50" height="50" relative="1" as="geometry">
            <mxPoint x="740" y="240" as="sourcePoint" />
            <mxPoint x="790" y="190" as="targetPoint" />
            <Array as="points">
              <mxPoint x="740" y="190" />
              <mxPoint x="950" y="190" />
            </Array>
          </mxGeometry>
        </mxCell>
        <mxCell id="nl7fZnjaljLbseoDOLMn-42" value="" style="endArrow=classic;html=1;rounded=0;entryX=0.625;entryY=0;entryDx=0;entryDy=0;entryPerimeter=0;flowAnimation=1;strokeColor=#6666FF;" edge="1" parent="1" target="nl7fZnjaljLbseoDOLMn-21">
          <mxGeometry width="50" height="50" relative="1" as="geometry">
            <mxPoint x="740" y="240" as="sourcePoint" />
            <mxPoint x="950" y="240" as="targetPoint" />
            <Array as="points">
              <mxPoint x="740" y="190" />
              <mxPoint x="950" y="190" />
              <mxPoint x="1180" y="190" />
            </Array>
          </mxGeometry>
        </mxCell>
        <mxCell id="nl7fZnjaljLbseoDOLMn-45" value="" style="endArrow=classic;html=1;rounded=0;flowAnimation=1;strokeColor=#9999FF;" edge="1" parent="1">
          <mxGeometry relative="1" as="geometry">
            <mxPoint x="750" y="395" as="sourcePoint" />
            <mxPoint x="1160" y="395" as="targetPoint" />
          </mxGeometry>
        </mxCell>
        <mxCell id="nl7fZnjaljLbseoDOLMn-46" value="Label" style="edgeLabel;resizable=0;html=1;;align=center;verticalAlign=middle;" connectable="0" vertex="1" parent="nl7fZnjaljLbseoDOLMn-45">
          <mxGeometry relative="1" as="geometry" />
        </mxCell>
        <mxCell id="nl7fZnjaljLbseoDOLMn-47" value="Source" style="edgeLabel;resizable=0;html=1;;align=left;verticalAlign=bottom;" connectable="0" vertex="1" parent="nl7fZnjaljLbseoDOLMn-45">
          <mxGeometry x="-1" relative="1" as="geometry" />
        </mxCell>
        <mxCell id="nl7fZnjaljLbseoDOLMn-48" value="Database" style="edgeLabel;resizable=0;html=1;;align=right;verticalAlign=bottom;" connectable="0" vertex="1" parent="nl7fZnjaljLbseoDOLMn-45">
          <mxGeometry x="1" relative="1" as="geometry" />
        </mxCell>
        <mxCell id="nl7fZnjaljLbseoDOLMn-49" value="Check&amp;nbsp;" style="edgeLabel;html=1;align=center;verticalAlign=middle;resizable=0;points=[];" vertex="1" connectable="0" parent="nl7fZnjaljLbseoDOLMn-45">
          <mxGeometry x="-0.025" y="-2" relative="1" as="geometry">
            <mxPoint as="offset" />
          </mxGeometry>
        </mxCell>
        <mxCell id="nl7fZnjaljLbseoDOLMn-50" value="Cache Miss&amp;nbsp;" style="edgeLabel;html=1;align=center;verticalAlign=middle;resizable=0;points=[];" vertex="1" connectable="0" parent="nl7fZnjaljLbseoDOLMn-45">
          <mxGeometry x="0.0105" y="-2" relative="1" as="geometry">
            <mxPoint as="offset" />
          </mxGeometry>
        </mxCell>
        <mxCell id="nl7fZnjaljLbseoDOLMn-51" value="" style="endArrow=classic;html=1;rounded=0;flowAnimation=1;strokeColor=#9999FF;" edge="1" parent="1">
          <mxGeometry relative="1" as="geometry">
            <mxPoint x="940" y="430" as="sourcePoint" />
            <mxPoint x="750" y="430" as="targetPoint" />
          </mxGeometry>
        </mxCell>
        <mxCell id="nl7fZnjaljLbseoDOLMn-52" value="Label" style="edgeLabel;resizable=0;html=1;;align=center;verticalAlign=middle;" connectable="0" vertex="1" parent="nl7fZnjaljLbseoDOLMn-51">
          <mxGeometry relative="1" as="geometry" />
        </mxCell>
        <mxCell id="nl7fZnjaljLbseoDOLMn-53" value="Source" style="edgeLabel;resizable=0;html=1;;align=left;verticalAlign=bottom;" connectable="0" vertex="1" parent="nl7fZnjaljLbseoDOLMn-51">
          <mxGeometry x="-1" relative="1" as="geometry" />
        </mxCell>
        <mxCell id="nl7fZnjaljLbseoDOLMn-55" value="Hot Data&amp;nbsp;" style="edgeLabel;html=1;align=center;verticalAlign=middle;resizable=0;points=[];" vertex="1" connectable="0" parent="nl7fZnjaljLbseoDOLMn-51">
          <mxGeometry x="-0.025" y="-2" relative="1" as="geometry">
            <mxPoint as="offset" />
          </mxGeometry>
        </mxCell>
        <mxCell id="nl7fZnjaljLbseoDOLMn-58" value="" style="endArrow=classic;html=1;rounded=0;flowAnimation=1;strokeColor=#9999FF;" edge="1" parent="1">
          <mxGeometry relative="1" as="geometry">
            <mxPoint x="1160" y="466" as="sourcePoint" />
            <mxPoint x="750" y="466" as="targetPoint" />
          </mxGeometry>
        </mxCell>
        <mxCell id="nl7fZnjaljLbseoDOLMn-59" value="Label" style="edgeLabel;resizable=0;html=1;;align=center;verticalAlign=middle;" connectable="0" vertex="1" parent="nl7fZnjaljLbseoDOLMn-58">
          <mxGeometry relative="1" as="geometry" />
        </mxCell>
        <mxCell id="nl7fZnjaljLbseoDOLMn-60" value="Database" style="edgeLabel;resizable=0;html=1;;align=left;verticalAlign=bottom;" connectable="0" vertex="1" parent="nl7fZnjaljLbseoDOLMn-58">
          <mxGeometry x="-1" relative="1" as="geometry" />
        </mxCell>
        <mxCell id="nl7fZnjaljLbseoDOLMn-61" value="WebAPI" style="edgeLabel;resizable=0;html=1;;align=right;verticalAlign=bottom;" connectable="0" vertex="1" parent="nl7fZnjaljLbseoDOLMn-58">
          <mxGeometry x="1" relative="1" as="geometry" />
        </mxCell>
        <mxCell id="nl7fZnjaljLbseoDOLMn-62" value="Fresh Data&amp;nbsp;" style="edgeLabel;html=1;align=center;verticalAlign=middle;resizable=0;points=[];" vertex="1" connectable="0" parent="nl7fZnjaljLbseoDOLMn-58">
          <mxGeometry x="-0.025" y="-2" relative="1" as="geometry">
            <mxPoint as="offset" />
          </mxGeometry>
        </mxCell>
        <mxCell id="nl7fZnjaljLbseoDOLMn-66" value="" style="endArrow=classic;html=1;rounded=0;flowAnimation=1;strokeColor=#FFFF00;" edge="1" parent="1">
          <mxGeometry relative="1" as="geometry">
            <mxPoint x="400" y="530" as="sourcePoint" />
            <mxPoint x="730" y="530" as="targetPoint" />
          </mxGeometry>
        </mxCell>
        <mxCell id="nl7fZnjaljLbseoDOLMn-67" value="Validate E/Tag" style="edgeLabel;resizable=0;html=1;;align=center;verticalAlign=middle;" connectable="0" vertex="1" parent="nl7fZnjaljLbseoDOLMn-66">
          <mxGeometry relative="1" as="geometry" />
        </mxCell>
        <mxCell id="nl7fZnjaljLbseoDOLMn-68" value="User" style="edgeLabel;resizable=0;html=1;;align=left;verticalAlign=bottom;" connectable="0" vertex="1" parent="nl7fZnjaljLbseoDOLMn-66">
          <mxGeometry x="-1" relative="1" as="geometry" />
        </mxCell>
        <mxCell id="nl7fZnjaljLbseoDOLMn-69" value="WebAPI" style="edgeLabel;resizable=0;html=1;;align=right;verticalAlign=bottom;" connectable="0" vertex="1" parent="nl7fZnjaljLbseoDOLMn-66">
          <mxGeometry x="1" relative="1" as="geometry" />
        </mxCell>
        <mxCell id="nl7fZnjaljLbseoDOLMn-72" value="" style="endArrow=classic;html=1;rounded=0;flowAnimation=1;strokeColor=#FFFF00;" edge="1" parent="1">
          <mxGeometry relative="1" as="geometry">
            <mxPoint x="730" y="580" as="sourcePoint" />
            <mxPoint x="400" y="580" as="targetPoint" />
          </mxGeometry>
        </mxCell>
        <mxCell id="nl7fZnjaljLbseoDOLMn-73" value="304" style="edgeLabel;resizable=0;html=1;;align=center;verticalAlign=middle;" connectable="0" vertex="1" parent="nl7fZnjaljLbseoDOLMn-72">
          <mxGeometry relative="1" as="geometry" />
        </mxCell>
        <mxCell id="nl7fZnjaljLbseoDOLMn-74" value="&lt;span style=&quot;color: rgb(255, 255, 255); font-family: Helvetica; font-size: 11px; font-style: normal; font-variant-ligatures: normal; font-variant-caps: normal; font-weight: 400; letter-spacing: normal; orphans: 2; text-align: right; text-indent: 0px; text-transform: none; widows: 2; word-spacing: 0px; -webkit-text-stroke-width: 0px; white-space: nowrap; background-color: rgb(18, 18, 18); text-decoration-thickness: initial; text-decoration-style: initial; text-decoration-color: initial; display: inline !important; float: none;&quot;&gt;WebAPI&lt;/span&gt;" style="edgeLabel;resizable=0;html=1;;align=left;verticalAlign=bottom;" connectable="0" vertex="1" parent="nl7fZnjaljLbseoDOLMn-72">
          <mxGeometry x="-1" relative="1" as="geometry" />
        </mxCell>
        <mxCell id="nl7fZnjaljLbseoDOLMn-75" value="User" style="edgeLabel;resizable=0;html=1;;align=right;verticalAlign=bottom;" connectable="0" vertex="1" parent="nl7fZnjaljLbseoDOLMn-72">
          <mxGeometry x="1" relative="1" as="geometry" />
        </mxCell>
      </root>
    </mxGraphModel>
  </diagram>
</mxfile>
